<svg width="107" height="107" viewBox="0 0 107 107" fill="none" xmlns="http://www.w3.org/2000/svg">
<g clip-path="url(#clip0)">
<path d="M34.0042 83.0479C27.8924 83.0479 22.938 88.0025 22.938 94.1141C22.938 100.226 27.8926 105.18 34.0042 105.18C40.116 105.18 45.0704 100.226 45.0704 94.1141C45.0706 88.0025 40.116 83.0479 34.0042 83.0479ZM34.0042 100.262C30.6088 100.262 27.8564 97.5097 27.8564 94.1143C27.8564 90.7189 30.6088 87.9665 34.0042 87.9665C37.3996 87.9665 40.152 90.7189 40.152 94.1143C40.1523 97.5097 37.3996 100.262 34.0042 100.262Z" fill="white"/>
<path d="M80.7283 83.0479C74.6165 83.0479 69.6621 88.0025 69.6621 94.1141C69.6621 100.226 74.6167 105.18 80.7283 105.18C86.8399 105.18 91.7945 100.226 91.7945 94.1141C91.7945 88.0025 86.8402 83.0479 80.7283 83.0479ZM80.7283 100.262C77.3329 100.262 74.5805 97.5097 74.5805 94.1143C74.5805 90.7189 77.3329 87.9665 80.7283 87.9665C84.1237 87.9665 86.8762 90.7189 86.8762 94.1143C86.8764 97.5097 84.1237 100.262 80.7283 100.262Z" fill="white"/>
<path d="M105.689 18.4943C105.177 17.9348 104.476 17.5846 103.722 17.5105L23.6756 16.4039L21.4624 9.64107C19.9032 5.12021 15.6697 2.06818 10.8878 2.01758H2.64961C1.2914 2.01758 0.19043 3.11855 0.19043 4.47676C0.19043 5.83497 1.2914 6.93595 2.64961 6.93595H10.8878C13.5617 6.99502 15.9161 8.7119 16.79 11.2396L32.4058 58.3329L31.1763 61.1608C29.8049 64.6972 30.2168 68.6775 32.2829 71.8582C34.3293 74.9823 37.772 76.9103 41.5049 77.0225H89.336C90.6942 77.0225 91.7952 75.9216 91.7952 74.5634C91.7952 73.2052 90.6942 72.1042 89.336 72.1042H41.5047C39.3966 72.0515 37.4562 70.9425 36.3404 69.1531C35.237 67.3856 35.0104 65.2082 35.7256 63.251L36.7094 61.0377L88.4751 55.6275C94.1612 55.0012 98.8385 50.8656 100.156 45.2989L106.058 20.5842C106.324 19.8725 106.183 19.0721 105.689 18.4943ZM95.3608 44.1925C94.5624 47.7759 91.5201 50.4192 87.8604 50.7094L36.7094 55.9965L25.2741 21.3223L100.648 22.4289L95.3608 44.1925Z" fill="white"/>
</g>
<defs>
<clipPath id="clip0">
<rect width="106" height="106" fill="white" transform="translate(0.19043 0.599609)"/>
</clipPath>
</defs>
</svg>
