<svg width="322" height="37" viewBox="0 0 322 37" fill="none" xmlns="http://www.w3.org/2000/svg">
<g clip-path="url(#clip0)">
<path d="M76.7093 8.65913V21.8247H80.0356C80.8845 21.8122 81.7222 21.6319 82.4993 21.2943C83.2763 20.9568 83.9769 20.4689 84.5595 19.8595C85.7553 18.6101 86.4095 16.9494 86.3829 15.231C86.4083 14.3775 86.2625 13.5274 85.9539 12.7297C85.6454 11.932 85.1801 11.2022 84.5849 10.5825C83.9999 9.97222 83.2944 9.4866 82.5121 9.15554C81.7297 8.82447 80.8869 8.65496 80.0356 8.65746H76.711L76.7093 8.65913ZM80.0356 4.5312C86.2353 4.5312 90.9254 9.27179 90.9254 15.231C90.9254 21.1902 86.2353 25.9576 80.0356 25.9576H72.6994C72.6295 25.9567 72.5604 25.9423 72.4961 25.915C72.4318 25.8878 72.3736 25.8484 72.3248 25.7989C72.2759 25.7495 72.2374 25.6911 72.2115 25.627C72.1856 25.5628 72.1727 25.4943 72.1736 25.4253V5.08528C72.1736 4.79066 72.4093 4.55129 72.6994 4.55129L80.0356 4.5312ZM106.906 22.2833C109.721 22.2917 112.264 20.5826 113.348 17.9528C113.879 16.668 114.021 15.2587 113.756 13.8958C113.492 12.533 112.833 11.275 111.859 10.2745C110.901 9.29036 109.664 8.61597 108.311 8.34041C106.957 8.06485 105.55 8.20108 104.276 8.73111C101.674 9.81582 99.9748 12.382 99.9697 15.231C99.9697 19.1145 103.07 22.2649 106.907 22.2833H106.906ZM106.907 4.04576C113.433 4.04576 118.421 9.12114 118.421 15.231C118.421 21.3409 113.433 26.4163 106.906 26.4163C100.38 26.4163 95.434 21.366 95.434 15.231C95.434 9.09603 100.423 4.04576 106.906 4.04576H106.907ZM134.273 22.2833C138.111 22.2733 141.217 19.1196 141.214 15.236C141.209 11.3492 138.096 8.20215 134.259 8.20047C130.419 8.20047 127.305 11.3458 127.299 15.231C127.299 17.1025 128.034 18.8969 129.342 20.2193C129.982 20.8711 130.748 21.3895 131.595 21.744C132.441 22.0985 133.351 22.2819 134.271 22.2833H134.273ZM134.271 4.04576C140.776 4.04576 145.765 9.09603 145.765 15.231C145.765 21.366 140.756 26.4163 134.271 26.4163C127.788 26.4163 122.757 21.366 122.757 15.231C122.757 9.09603 127.746 4.04576 134.271 4.04576ZM160.98 8.65913H156.29V14.3254H160.98C161.35 14.3416 161.72 14.2827 162.067 14.1523C162.414 14.0219 162.729 13.8227 162.995 13.5671C163.538 13.0482 163.846 12.3284 163.853 11.5718C163.867 11.1879 163.802 10.8053 163.662 10.4469C163.522 10.0885 163.31 9.76165 163.039 9.48606C162.773 9.21484 162.452 9.00159 162.098 8.86004C161.743 8.71848 161.362 8.65176 160.98 8.66416V8.65913ZM151.752 5.08528C151.752 4.79066 151.99 4.55129 152.28 4.55129H161.11C165.32 4.55129 168.367 7.67318 168.367 11.5935C168.399 14.2451 166.932 16.6806 164.589 17.8675L168.662 25.1541C168.718 25.2379 168.75 25.3354 168.754 25.4358C168.757 25.5363 168.733 25.6358 168.682 25.7233C168.633 25.8093 168.56 25.8797 168.472 25.926C168.383 25.9723 168.283 25.9926 168.184 25.9844H164.61C164.511 25.9858 164.413 25.9595 164.329 25.9085C164.244 25.8576 164.176 25.7841 164.131 25.6965L160.206 18.4851H156.273V25.4086C156.274 25.4777 156.261 25.5464 156.235 25.6107C156.21 25.675 156.171 25.7337 156.122 25.7833C156.073 25.8329 156.015 25.8725 155.951 25.8998C155.886 25.9272 155.817 25.9417 155.747 25.9425H152.304C152.234 25.9417 152.164 25.9272 152.1 25.8998C152.036 25.8725 151.977 25.8329 151.928 25.7833C151.88 25.7337 151.841 25.675 151.815 25.6107C151.789 25.5464 151.777 25.4777 151.778 25.4086L151.754 5.08695L151.752 5.08528ZM180.193 8.75957V21.9268H183.518C184.366 21.9154 185.204 21.7362 185.981 21.3998C186.759 21.0634 187.46 20.5767 188.043 19.9683C189.24 18.7204 189.895 17.0609 189.87 15.3432C189.897 14.4886 189.753 13.6372 189.445 12.8379C189.137 12.0387 188.672 11.3074 188.077 10.6863C187.491 10.075 186.784 9.58876 186 9.25766C185.216 8.92655 184.372 8.7576 183.519 8.76124L180.193 8.75957ZM183.518 4.62662C189.717 4.62662 194.407 9.37223 194.407 15.3432C194.407 21.3141 189.717 26.0597 183.518 26.0597H176.204C176.133 26.0588 176.064 26.0443 176 26.017C175.935 25.9897 175.877 25.9501 175.828 25.9005C175.779 25.8508 175.741 25.7922 175.715 25.7279C175.689 25.6636 175.677 25.5949 175.678 25.5257V5.18739C175.678 4.8911 175.913 4.65173 176.204 4.65173L183.519 4.62662H183.518ZM208.242 9.86269L205.669 16.9033H210.81L208.242 9.86269ZM204.159 20.8822L202.475 25.5693C202.441 25.6795 202.371 25.7756 202.276 25.8423C202.181 25.9089 202.066 25.9424 201.949 25.9375H198.295C198.202 25.9461 198.109 25.9298 198.024 25.8903C197.94 25.8508 197.867 25.7897 197.815 25.7132C197.762 25.6359 197.73 25.5462 197.722 25.453C197.714 25.3597 197.73 25.266 197.769 25.1809L205.664 4.86097C205.701 4.75381 205.772 4.66147 205.867 4.59801C205.962 4.53455 206.075 4.50345 206.19 4.50944H210.277C210.392 4.50307 210.506 4.534 210.601 4.59749C210.697 4.66097 210.768 4.75352 210.805 4.86097L218.699 25.1809C218.738 25.2662 218.755 25.36 218.746 25.4532C218.738 25.5465 218.705 25.636 218.652 25.7132C218.599 25.7894 218.527 25.8502 218.443 25.8894C218.358 25.9285 218.265 25.9446 218.172 25.9358H214.52C214.403 25.9408 214.288 25.9073 214.193 25.8406C214.098 25.7739 214.028 25.6779 213.994 25.5676L212.31 20.8806H204.159V20.8822ZM222.935 10.3197C222.935 6.95506 225.808 4.04576 230.346 4.04576C232.789 3.99191 235.155 4.89393 236.927 6.55499C236.981 6.60537 237.024 6.66609 237.053 6.73344C237.083 6.8008 237.098 6.87336 237.098 6.9467C237.098 7.02003 237.083 7.09259 237.053 7.15995C237.024 7.2273 236.981 7.28802 236.927 7.3384L234.903 9.37223C234.855 9.42164 234.797 9.46093 234.733 9.48777C234.669 9.5146 234.6 9.52843 234.53 9.52843C234.461 9.52843 234.392 9.5146 234.327 9.48777C234.263 9.46093 234.205 9.42164 234.157 9.37223C233.204 8.4906 231.952 7.99108 230.646 7.97115C228.831 7.97115 227.489 9.03744 227.489 10.2678C227.489 14.2451 238.214 11.9501 238.214 19.6033C238.209 23.4819 235.314 26.4163 230.195 26.4163C228.773 26.4306 227.363 26.1627 226.049 25.6284C224.734 25.0941 223.542 24.3043 222.543 23.3061C222.489 23.2557 222.446 23.195 222.416 23.1276C222.387 23.0603 222.372 22.9877 222.372 22.9144C222.372 22.8411 222.387 22.7685 222.416 22.7011C222.446 22.6338 222.489 22.5731 222.543 22.5227L224.5 20.5407C224.549 20.4889 224.608 20.4476 224.674 20.4193C224.739 20.3911 224.81 20.3765 224.882 20.3765C224.954 20.3765 225.025 20.3911 225.09 20.4193C225.156 20.4476 225.215 20.4889 225.264 20.5407C226.496 21.7458 228.155 22.4303 229.889 22.449C232.157 22.449 233.652 21.2237 233.652 19.6887C233.652 15.7098 222.931 18.0064 222.931 10.3515L222.935 10.3197ZM257.663 5.05849V13.1001H248.585V5.05849C248.586 4.98947 248.573 4.92094 248.547 4.85683C248.521 4.79272 248.483 4.73428 248.434 4.68485C248.385 4.63542 248.327 4.59597 248.263 4.56874C248.198 4.54152 248.129 4.52705 248.059 4.52618H244.616C244.546 4.52705 244.477 4.54152 244.413 4.56874C244.348 4.59597 244.29 4.63542 244.241 4.68485C244.193 4.73428 244.154 4.79272 244.128 4.85683C244.102 4.92094 244.089 4.98947 244.09 5.05849V25.3751C244.09 25.6697 244.328 25.9091 244.616 25.9091H248.059C248.348 25.9091 248.585 25.6697 248.585 25.3751V17.2063H257.657V25.3751C257.657 25.6697 257.894 25.9091 258.182 25.9091H261.626C261.916 25.9091 262.152 25.6697 262.152 25.3751V5.05849C262.153 4.98947 262.14 4.92094 262.114 4.85683C262.088 4.79272 262.049 4.73428 262 4.68485C261.952 4.63542 261.893 4.59597 261.829 4.56874C261.765 4.54152 261.696 4.52705 261.626 4.52618H258.182C258.042 4.52969 257.909 4.58754 257.812 4.68718C257.715 4.78682 257.662 4.92023 257.663 5.05849ZM52.845 7.23796C50.4567 2.86898 45.7836 0.148834 40.7017 0.165574H2.25147C1.9918 0.166614 1.73819 0.243036 1.52223 0.385317C1.30626 0.527598 1.1375 0.729448 1.03697 0.965716C0.9379 1.20047 0.912099 1.45906 0.962868 1.70837C1.01364 1.95769 1.13866 2.18637 1.32193 2.36513L9.69793 10.5674C10.4375 11.2939 11.4451 11.7007 12.4933 11.7007H39.5991C41.5311 11.6806 43.1103 13.1905 43.1307 15.0703C43.151 16.9501 41.6024 18.4902 39.6704 18.5086H20.983C20.7231 18.5087 20.469 18.5843 20.2524 18.726C20.0359 18.8677 19.8663 19.0692 19.7651 19.3054C19.6651 19.5404 19.6386 19.7996 19.6891 20.0496C19.7395 20.2995 19.8647 20.5289 20.0483 20.7081L28.4294 28.9171C29.1736 29.6432 30.1783 30.0499 31.2248 30.0487H39.6771C50.6738 30.0487 58.9888 18.599 52.845 7.23294" fill="white"/>
</g>
<defs>
<clipPath id="clip0">
<rect width="321" height="37" fill="white" transform="translate(0.712891)"/>
</clipPath>
</defs>
</svg>
