<svg width="192" height="36" viewBox="0 0 192 36" fill="none" xmlns="http://www.w3.org/2000/svg">
<g clip-path="url(#clip0)">
<path d="M15.3287 5.68216C13.0891 5.68216 12.4172 6.64157 12.4172 8.77843V12.3108H18.4195L17.8372 18.0672H12.4172V35.4674H5.20539V18.0672H0.367676V12.3544H5.20539V8.90925C5.20539 3.0656 7.62424 0.0129395 14.2985 0.0129395C15.6871 0.0129395 17.1205 0.100158 18.5091 0.274596V5.68216" fill="#004F9D"/>
<path d="M18.912 23.1675C18.912 16.7134 22.0475 11.8291 28.677 11.8291C32.2605 11.8291 34.4554 13.6171 35.5304 15.8848V12.3524H42.4286V35.509H35.4856V32.0203C34.5002 34.2443 32.2157 35.9887 28.6322 35.9887C22.0475 35.9887 18.8672 31.1481 18.8672 24.6503L18.912 23.1675ZM26.1238 24.7375C26.1238 28.1826 27.4228 30.4939 30.7823 30.4939C33.7387 30.4939 35.2169 28.4007 35.2169 25.0864V22.7314C35.2169 19.4171 33.6939 17.3239 30.7823 17.3239C27.4228 17.3239 26.1238 19.5916 26.1238 23.0803V24.7375Z" fill="#004F9D"/>
<path d="M57.3896 11.8291C60.1669 11.8291 62.8545 12.396 64.2879 13.399L62.6753 18.3705C61.1971 17.6728 59.5397 17.3239 57.8824 17.3239C53.9853 17.3239 52.2832 19.5044 52.2832 23.2548V24.6067C52.2832 28.3571 53.9853 30.5375 57.8824 30.5375C59.5397 30.5375 61.1971 30.145 62.6753 29.4473L64.2879 34.4188C62.8545 35.3782 60.2116 35.9887 57.3896 35.9887C48.9237 35.9887 45.1162 31.5842 45.1162 24.4758V23.3856C45.1162 16.2773 48.9237 11.8291 57.3896 11.8291Z" fill="#004F9D"/>
<path d="M65.229 24.7811V22.7314C65.229 16.1464 69.0813 11.8291 76.9201 11.8291C84.3111 11.8291 87.581 16.19 87.581 22.6442V26.351H72.4408C72.5752 29.5345 74.0534 30.93 78.04 30.93C80.638 30.93 83.2361 30.4503 85.6997 29.5345L86.9987 34.3315C85.1174 35.2909 81.2203 36.0323 77.7712 36.0323C68.6333 35.9887 65.229 31.5841 65.229 24.7811ZM72.4408 21.7284H81.1308V21.1615C81.1308 18.6322 80.1005 16.6261 76.9201 16.6261C73.695 16.6261 72.4408 18.6322 72.4408 21.7284Z" fill="#004F9D"/>
<path d="M114.278 24.6505C114.278 31.1047 111.098 35.9889 104.468 35.9889C100.885 35.9889 98.3761 34.2445 97.3907 32.0205V35.5092H90.582V0.70892L97.7938 0.0983887V15.5797C98.8241 13.5301 101.153 11.8729 104.513 11.8729C111.098 11.8729 114.323 16.7136 114.323 23.2114L114.278 24.6505ZM107.066 23.0369C107.066 19.7662 105.767 17.3241 102.318 17.3241C99.3616 17.3241 97.7938 19.3737 97.7938 22.688V25.1302C97.7938 28.4445 99.4064 30.4941 102.318 30.4941C105.767 30.4941 107.066 28.052 107.066 24.7813V23.0369Z" fill="#004F9D"/>
<path d="M116.652 24.4758V23.2984C116.652 16.6261 120.549 11.8291 128.477 11.8291C136.406 11.8291 140.303 16.6261 140.303 23.2984V24.4758C140.303 31.1481 136.406 35.9451 128.477 35.9451C120.549 35.9451 116.652 31.1917 116.652 24.4758ZM133.136 22.8187C133.136 19.766 131.837 17.3239 128.477 17.3239C125.118 17.3239 123.819 19.766 123.819 22.8187V24.9991C123.819 28.0518 125.118 30.4939 128.477 30.4939C131.837 30.4939 133.136 28.0518 133.136 24.9991V22.8187Z" fill="#004F9D"/>
<path d="M142.767 24.4758V23.2984C142.767 16.6261 146.664 11.8291 154.592 11.8291C162.521 11.8291 166.418 16.6261 166.418 23.2984V24.4758C166.418 31.1481 162.521 35.9451 154.592 35.9451C146.664 35.9451 142.767 31.1917 142.767 24.4758ZM159.251 22.8187C159.251 19.766 157.952 17.3239 154.592 17.3239C151.233 17.3239 149.934 19.766 149.934 22.8187V24.9991C149.934 28.0518 151.233 30.4939 154.592 30.4939C157.952 30.4939 159.251 28.0518 159.251 24.9991V22.8187Z" fill="#004F9D"/>
<path d="M176.317 23.3857L183.439 12.3089H191.054L183.618 23.7782L191.368 35.5091H183.708L176.317 24.1707V35.5091H169.15V0.708828L176.317 0.0546875" fill="#004F9D"/>
</g>
<defs>
<clipPath id="clip0">
<rect width="191" height="36" fill="white" transform="translate(0.367676)"/>
</clipPath>
</defs>
</svg>
