<svg width="159" height="34" viewBox="0 0 159 34" fill="none" xmlns="http://www.w3.org/2000/svg">
<g clip-path="url(#clip0)">
<path d="M134.009 1.0758H128.477C128.165 1.0758 128.009 1.2309 128.009 1.54096V23.3199C128.009 24.405 127.658 25.2187 127.191 25.839C126.723 26.4591 126.1 26.614 125.32 26.614C124.541 26.614 123.879 26.3038 123.411 25.839C122.944 25.2187 122.632 24.405 122.632 23.3199V1.54096C122.632 1.2309 122.32 1.0758 122.164 1.0758H116.592C116.281 1.0758 116.125 1.2309 116.125 1.54096V23.4751C116.125 26.3039 116.748 28.9779 118.502 30.7216C120.216 32.4657 122.593 33.3957 125.32 33.3957C128.165 33.3957 130.542 32.4658 132.139 30.7216C133.854 29.0169 134.516 26.4979 134.516 23.4751V1.54096C134.672 1.38611 134.36 1.0758 134.009 1.0758ZM155.245 16.5385C156.18 15.6082 157.934 13.3993 157.934 10.5317C157.934 7.19914 156.648 5.18394 155.674 4.05986C153.92 2.19975 151.582 1.2309 148.855 1.2309H140.127C139.777 1.2309 139.62 1.54096 139.62 1.6958V32.4657C139.62 32.7756 139.932 32.9308 140.127 32.9308H149.361C152.206 32.9308 154.894 31.8457 156.648 29.598C157.583 28.3579 158.713 26.265 158.713 23.1263C158.401 19.3673 156.063 17.1584 155.245 16.5385ZM146.05 7.5475H148.894C149.673 7.5475 150.297 7.70235 150.764 8.32259C151.271 8.8263 151.427 9.60151 151.427 10.5702C151.427 11.539 151.271 12.2751 150.764 12.9343C150.297 13.3992 149.673 13.7093 149.05 13.7093H146.206V7.5475H146.05ZM151.115 25.6838C150.647 26.3039 150.024 26.459 149.05 26.459H145.894V19.7933H149.05C149.829 19.7933 150.453 20.142 150.92 20.6074C151.427 21.2273 151.738 22.0023 151.738 22.9711C151.894 24.2499 151.622 25.0251 151.115 25.6838ZM38.2745 19.2121C38.8979 18.7472 39.4045 18.4371 39.8721 17.7783C40.963 16.5384 42.4046 14.3291 42.4046 10.8415C42.4046 7.5087 41.1188 5.33866 39.8721 4.05986C38.2745 2.19975 35.8976 1.2309 33.2091 1.0758H24.0135C23.7018 1.0758 23.546 1.38611 23.546 1.54096V32.2722C23.546 32.5821 23.8577 32.7371 24.0135 32.7371H29.5464C29.8582 32.7371 30.0141 32.4269 30.0141 32.2722V20.9174H31.9234L35.3911 32.5821C35.3911 32.7371 35.7418 32.892 35.8977 32.892H41.7423C41.8981 32.892 42.0541 32.7371 42.2099 32.7371C42.3657 32.7371 42.3657 32.4269 42.3657 32.2722L38.2745 19.2121ZM34.7676 13.5153C34.3001 14.1357 33.5208 14.4841 32.5466 14.4841H29.858V7.5475H32.5466C33.4817 7.5475 34.2609 7.85756 34.7676 8.47756C35.391 9.13661 35.5858 9.91157 35.5858 10.9967C35.5858 12.1204 35.43 12.8953 34.7676 13.5153ZM85.1485 16.5385C86.1226 15.6082 87.8372 13.3993 87.8372 10.5317C87.8372 7.19914 86.5903 5.18394 85.6161 4.05986C83.8628 2.19975 81.4857 1.2309 78.7974 1.2309H70.1081C69.7965 1.2309 69.6406 1.54096 69.6406 1.6958V32.4657C69.6406 32.7756 69.9525 32.9308 70.1081 32.9308H79.3039C82.1483 32.9308 84.8368 31.8457 86.6291 29.598C87.5643 28.3579 88.6943 26.265 88.6943 23.1263C88.4996 19.3673 86.1226 17.1584 85.1485 16.5385ZM75.9918 7.5475H78.8363C79.6156 7.5475 80.2391 7.70235 80.7067 8.32259C81.1741 8.8263 81.3302 9.60151 81.3302 10.5702C81.3302 11.539 81.1741 12.2751 80.7067 12.9343C80.239 13.3992 79.6156 13.7093 78.9921 13.7093H76.1476V7.5475H75.9918ZM81.213 25.6838C80.7457 26.3039 80.1219 26.459 79.1479 26.459H75.9918V19.7933H79.1479C79.9271 19.7933 80.5506 20.142 81.0182 20.6074C81.4856 21.2273 81.8364 22.0023 81.8364 22.9711C81.8754 24.2499 81.7197 25.0251 81.213 25.6838ZM9.86959 0.610901C7.02506 0.610901 4.64835 1.54096 3.05083 3.28465C1.33627 5.0286 0.712891 7.5087 0.712891 10.5316V23.6298C0.712891 26.4591 1.33627 29.1326 3.05083 30.8768C4.80417 32.6209 7.181 33.551 9.86959 33.551C12.7139 33.551 15.1296 32.621 16.7271 30.8768C18.4417 29.1716 19.065 26.6527 19.065 23.6298V16.4217C19.065 16.0732 18.7533 15.7633 18.4417 15.7633H10.376C10.0255 15.7633 9.71377 16.0732 9.71377 16.4217V21.7698C9.71377 22.0798 10.0255 22.3899 10.376 22.3899H12.4412V23.6687C12.4412 24.7539 12.1295 25.7227 11.6621 26.3429C11.1942 26.963 10.5321 27.1178 9.75266 27.1178C8.97347 27.1178 8.34997 26.8079 7.84352 26.3429C7.37595 25.7227 7.06433 24.754 7.06433 23.6687V10.7256C7.06433 9.60151 7.37595 8.63265 7.84352 8.05109C8.3501 7.43109 8.97347 7.27625 9.75266 7.27625C10.5321 7.27625 11.1944 7.58631 11.6621 8.05109C12.1296 8.67121 12.4412 9.60151 12.4412 10.7256V11.9656C12.4412 12.2753 12.7529 12.4692 12.9088 12.4692H18.4418C18.7534 12.4692 18.9094 12.2753 18.9094 11.9656V10.7256C18.9094 7.89624 18.286 5.22237 16.5326 3.47855C15.1297 1.54096 12.558 0.610901 9.86959 0.610901ZM64.1078 1.0758H58.5749C58.2631 1.0758 58.1072 1.2309 58.1072 1.54096V23.3199C58.1072 24.405 57.7567 25.2187 57.2891 25.839C56.8214 26.4591 56.1979 26.614 55.4187 26.614C54.6395 26.614 53.977 26.3038 53.5096 25.839C53.042 25.2187 52.7304 24.405 52.7304 23.3199V1.54096C52.7304 1.2309 52.3796 1.0758 52.2238 1.0758H46.6909C46.3792 1.0758 46.2234 1.2309 46.2234 1.54096V23.4751C46.2234 26.3039 46.8858 28.9779 48.6001 30.7216C50.3534 32.4657 52.7304 33.3957 55.4188 33.3957C58.2634 33.3957 60.6791 32.4658 62.2376 30.7216C63.9909 29.0169 64.6143 26.4979 64.6143 23.4751V1.54096C64.5754 1.38611 64.4195 1.0758 64.1078 1.0758ZM110.709 1.0758H105.176C104.864 1.0758 104.709 1.38611 104.709 1.54096V13.5153H99.1757V1.54096C99.1757 1.2309 98.864 1.0758 98.7081 1.0758H93.1751C92.8633 1.0758 92.7076 1.38611 92.7076 1.54096V32.2722C92.7076 32.5821 93.0194 32.7371 93.1751 32.7371H98.7081C99.0197 32.7371 99.1757 32.4269 99.1757 32.2722V19.9874H104.709V32.2722C104.709 32.5821 105.02 32.7371 105.176 32.7371H110.709C111.021 32.7371 111.177 32.4269 111.177 32.2722V1.54096C111.177 1.38611 111.021 1.0758 110.709 1.0758Z" fill="#df2332"/>
</g>
<defs>
<clipPath id="clip0">
<rect width="158" height="33" fill="white" transform="translate(0.712891 0.580017)"/>
</clipPath>
</defs>
</svg>
