<svg width="161" height="112" viewBox="0 0 161 112" fill="none" xmlns="http://www.w3.org/2000/svg">
<rect x="0.0737305" y="0.244507" width="160.331" height="111.432" fill="black"/>
<path d="M33.0643 61.7918C31.2797 63.9123 28.1092 70.0099 26.0159 75.3431C23.924 80.6762 20.6338 86.6188 18.7037 88.5475C16.1112 91.14 15.7508 92.0554 17.3231 92.0554C20.5399 92.0554 26.9422 83.4795 29.7414 75.422C31.1111 71.4788 33.4029 66.1865 34.8352 63.6606C38.1676 57.7875 37.2495 56.819 33.0643 61.7918Z" fill="white"/>
<path d="M28.0521 55.6235C15.2407 59.9243 10.6774 74.6916 22.2999 74.2373L25.7684 74.1026L22.368 73.1614C20.2298 72.5711 18.8003 71.064 18.5187 69.1054C17.1273 59.4605 38.0765 52.1999 45.254 59.8386C52.2752 67.314 44.8909 78.4538 32.9133 78.4538C29.7359 78.4538 29.0219 78.8509 30.1549 79.9839C32.7963 82.6254 41.4945 80.0016 46.4142 75.0819C58.0912 63.4049 45.2894 49.8373 28.0521 55.6235Z" fill="white"/>
<path fill-rule="evenodd" clip-rule="evenodd" d="M56.372 71.8855C56.372 72.7615 55.3002 74.7514 53.9917 76.3061C51.6141 79.1311 51.6141 79.1311 54.6718 76.5427C58.3415 73.4361 58.57 74.5759 55.3641 80.0016C53.3714 83.3748 53.298 84.1963 54.9016 85.1865C57.403 86.7317 59.8064 85.7809 67.5933 80.1635C74.6008 75.1078 74.7369 75.12 72.6408 80.6327C69.892 87.8647 75.7733 87.5165 87.2571 79.7663C90.5433 77.5479 93.4935 75.7334 93.8104 75.7334C94.1287 75.7334 93.7927 77.3031 93.0623 79.2222C91.4274 83.5217 91.4219 83.8944 92.9848 83.8944C93.673 83.8944 95.5582 81.7521 97.1768 79.1338C100.651 73.5136 103.144 72.8104 101.167 78.0076C98.3996 85.2913 101.453 86.9412 109.811 82.6811C112.587 81.2652 114.859 80.6096 114.859 81.223C114.859 81.8378 115.846 83.3272 117.053 84.5337C119.037 86.5181 119.55 86.5277 122.444 84.6302C124.205 83.4782 127.054 82.5342 128.777 82.5342C130.499 82.5342 134.194 80.9823 136.986 79.0849L142.062 75.6355V81.6393C142.062 88.8195 139.29 92.1084 135.72 89.1609C133.781 87.5614 133.554 87.5859 134.124 89.335C134.491 90.4572 136.389 91.5657 138.342 91.7969C143.542 92.4158 146.507 87.3315 145.31 79.8479C144.634 75.6219 144.894 73.7775 146.287 72.8948C147.692 72.0052 147.734 71.6897 146.45 71.6733C145.496 71.6625 141.602 73.7952 137.797 76.4135C130.162 81.6651 126.802 82.4173 127.171 78.7938C127.998 70.6736 123.314 68.9313 117.476 75.1853C111.112 82.0051 100.294 85.6803 104.047 79.7486C104.734 78.6632 105.305 76.3251 105.317 74.5542C105.335 71.8366 104.862 71.4843 102.277 72.2922C100.595 72.8172 98.1112 73.2307 96.7606 73.209C95.4099 73.1886 90.5718 75.5838 86.0085 78.5326C75.0878 85.5905 73.8337 85.5062 76.7227 77.911C78.8962 72.1929 75.8331 72.3249 67.2886 78.3191C57.9525 84.8669 55.1111 85.4763 58.7291 80.154C60.7204 77.2255 60.9652 75.7497 59.8594 73.3531C58.3524 70.086 56.372 69.2536 56.372 71.8855ZM122.478 79.2263C122.556 77.1562 123.474 74.9201 124.519 74.259C125.565 73.5966 125.75 73.0458 124.931 73.0335C122.495 72.9995 118.939 77.7587 118.939 81.0544C118.939 85.5252 122.31 83.7842 122.478 79.2263Z" fill="white"/>
<path d="M77.5642 9.98667C78.4619 16.9072 75.947 22.5641 67.6514 32.2824C64.2932 36.216 60.6534 41.1602 59.5625 43.2698C56.3961 49.3946 57.0707 57.712 61.3117 64.8025L65.044 71.0429L65.7322 65.6023C66.1674 62.1597 66.8244 60.786 67.5208 61.8618C69.8004 65.3833 70.7049 63.3172 70.0956 55.9819C69.2047 45.238 73.9013 36.7016 75.7158 45.7684C76.1524 47.9515 78.281 51.7776 80.4464 54.2694C86.7698 61.5476 87.6947 64.0435 85.3212 67.4317C83.3871 70.1928 83.4605 70.3628 86.5903 70.3628C89.0739 70.3628 90.5062 69.1142 92.2594 65.42C95.2232 59.1742 94.5771 45.5698 91.1536 42.1463C89.0059 40 88.8631 40.034 88.8631 42.7013C88.8631 44.2668 87.8416 46.3873 86.593 47.4142C84.5269 49.1131 84.4113 48.8546 85.3036 44.5198C88.7271 27.8701 87.2975 16.7916 80.7171 8.99239L76.8379 4.39505L77.5642 9.98667Z" fill="#DF2332"/>
<circle cx="76.334" cy="69.624" r="2.09913" fill="white"/>
<path d="M132.481 73.725L131.876 73.0995C132.415 72.6 132.756 72.0416 132.901 71.4246L133.128 70.3059L134.341 70.5528L134.143 71.5241C134.051 71.9751 133.848 72.4034 133.533 72.809C133.222 73.2154 132.871 73.5208 132.481 73.725Z" fill="white"/>
<circle cx="132.93" cy="70.1666" r="1.67819" transform="rotate(9.71526 132.93 70.1666)" fill="white"/>
<path d="M18.7047 103.812L18.6937 99.1917L16.4277 102.998H15.6247L13.3697 99.2907V103.812H11.6977V96.1117H13.1717L16.0537 100.897L18.8917 96.1117H20.3547L20.3767 103.812H18.7047ZM28.1655 102.382V103.812H22.2035V96.1117H28.0225V97.5417H23.9745V99.2137H27.5495V100.6H23.9745V102.382H28.1655ZM29.5834 96.1117H33.0814C33.9174 96.1117 34.6544 96.273 35.2924 96.5957C35.9377 96.911 36.4364 97.3583 36.7884 97.9377C37.1477 98.517 37.3274 99.1917 37.3274 99.9617C37.3274 100.732 37.1477 101.406 36.7884 101.986C36.4364 102.565 35.9377 103.016 35.2924 103.339C34.6544 103.654 33.9174 103.812 33.0814 103.812H29.5834V96.1117ZM32.9934 102.349C33.7634 102.349 34.3757 102.136 34.8304 101.711C35.2924 101.278 35.5234 100.695 35.5234 99.9617C35.5234 99.2283 35.2924 98.649 34.8304 98.2237C34.3757 97.791 33.7634 97.5747 32.9934 97.5747H31.3654V102.349H32.9934ZM38.6713 96.1117H40.4533V103.812H38.6713V96.1117ZM43.8757 97.5637H41.4117V96.1117H48.1217V97.5637H45.6577V103.812H43.8757V97.5637ZM55.0425 102.382V103.812H49.0805V96.1117H54.8995V97.5417H50.8515V99.2137H54.4265V100.6H50.8515V102.382H55.0425ZM61.3664 103.812L59.8814 101.667H59.7934H58.2424V103.812H56.4604V96.1117H59.7934C60.4754 96.1117 61.0657 96.2253 61.5644 96.4527C62.0704 96.68 62.459 97.0027 62.7304 97.4207C63.0017 97.8387 63.1374 98.3337 63.1374 98.9057C63.1374 99.4777 62.998 99.9727 62.7194 100.391C62.448 100.801 62.0594 101.117 61.5534 101.337L63.2804 103.812H61.3664ZM61.3334 98.9057C61.3334 98.473 61.194 98.143 60.9154 97.9157C60.6367 97.681 60.2297 97.5637 59.6944 97.5637H58.2424V100.248H59.6944C60.2297 100.248 60.6367 100.13 60.9154 99.8957C61.194 99.661 61.3334 99.331 61.3334 98.9057ZM69.4552 103.812L67.9702 101.667H67.8822H66.3312V103.812H64.5492V96.1117H67.8822C68.5642 96.1117 69.1546 96.2253 69.6532 96.4527C70.1592 96.68 70.5479 97.0027 70.8192 97.4207C71.0906 97.8387 71.2262 98.3337 71.2262 98.9057C71.2262 99.4777 71.0869 99.9727 70.8082 100.391C70.5369 100.801 70.1482 101.117 69.6422 101.337L71.3692 103.812H69.4552ZM69.4222 98.9057C69.4222 98.473 69.2829 98.143 69.0042 97.9157C68.7256 97.681 68.3186 97.5637 67.7832 97.5637H66.3312V100.248H67.7832C68.3186 100.248 68.7256 100.13 69.0042 99.8957C69.2829 99.661 69.4222 99.331 69.4222 98.9057ZM77.7091 102.162H74.1341L73.4521 103.812H71.6261L75.0581 96.1117H76.8181L80.2611 103.812H78.3911L77.7091 102.162ZM77.1481 100.809L75.9271 97.8607L74.7061 100.809H77.1481ZM88.122 96.1117V103.812H86.659L82.82 99.1367V103.812H81.06V96.1117H82.534L86.362 100.787V96.1117H88.122ZM95.9058 102.382V103.812H89.9438V96.1117H95.7628V97.5417H91.7148V99.2137H95.2898V100.6H91.7148V102.382H95.9058ZM102.395 102.162H98.8196L98.1376 103.812H96.3116L99.7436 96.1117H101.504L104.947 103.812H103.077L102.395 102.162ZM101.834 100.809L100.613 97.8607L99.3916 100.809H101.834ZM112.808 96.1117V103.812H111.345L107.506 99.1367V103.812H105.746V96.1117H107.22L111.048 100.787V96.1117H112.808ZM122.948 99.8407H124.576V102.965C124.158 103.28 123.674 103.522 123.124 103.691C122.574 103.859 122.02 103.944 121.463 103.944C120.663 103.944 119.945 103.775 119.307 103.438C118.669 103.093 118.166 102.62 117.8 102.019C117.44 101.41 117.261 100.724 117.261 99.9617C117.261 99.199 117.44 98.517 117.8 97.9157C118.166 97.307 118.672 96.834 119.318 96.4967C119.963 96.152 120.689 95.9797 121.496 95.9797C122.17 95.9797 122.783 96.0933 123.333 96.3207C123.883 96.548 124.345 96.878 124.719 97.3107L123.575 98.3667C123.025 97.7873 122.361 97.4977 121.584 97.4977C121.092 97.4977 120.656 97.6003 120.275 97.8057C119.893 98.011 119.596 98.3007 119.384 98.6747C119.171 99.0487 119.065 99.4777 119.065 99.9617C119.065 100.438 119.171 100.864 119.384 101.238C119.596 101.612 119.89 101.905 120.264 102.118C120.645 102.323 121.078 102.426 121.562 102.426C122.075 102.426 122.537 102.316 122.948 102.096V99.8407ZM131.137 103.812L129.652 101.667H129.564H128.013V103.812H126.231V96.1117H129.564C130.246 96.1117 130.836 96.2253 131.335 96.4527C131.841 96.68 132.23 97.0027 132.501 97.4207C132.772 97.8387 132.908 98.3337 132.908 98.9057C132.908 99.4777 132.769 99.9727 132.49 100.391C132.219 100.801 131.83 101.117 131.324 101.337L133.051 103.812H131.137ZM131.104 98.9057C131.104 98.473 130.965 98.143 130.686 97.9157C130.407 97.681 130 97.5637 129.465 97.5637H128.013V100.248H129.465C130 100.248 130.407 100.13 130.686 99.8957C130.965 99.661 131.104 99.331 131.104 98.9057ZM134.32 96.1117H136.102V103.812H134.32V96.1117ZM137.929 96.1117H139.711V102.36H143.572V103.812H137.929V96.1117ZM144.568 96.1117H146.35V102.36H150.211V103.812H144.568V96.1117Z" fill="#DF2332"/>
</svg>
