<svg width="333" height="62" viewBox="0 0 333 62" fill="none" xmlns="http://www.w3.org/2000/svg">
<g clip-path="url(#clip0)">
<path d="M36.1815 29.9801C38.9253 37.6021 47.6556 41.536 55.3881 38.5856C63.1207 35.881 67.1116 27.2755 64.1184 19.6535C61.3746 12.0316 52.6443 8.09765 44.9118 11.0481C37.4287 13.7527 33.4377 22.3581 36.1815 29.9801Z" fill="white"/>
<path d="M17.224 39.5691C25.4896 39.5691 32.1902 32.9643 32.1902 24.8169C32.1902 16.6695 25.4896 10.0647 17.224 10.0647C8.9584 10.0647 2.25781 16.6695 2.25781 24.8169C2.25781 32.9643 8.9584 39.5691 17.224 39.5691Z" fill="white"/>
<path d="M19.7181 24.571C19.7181 26.0462 18.4709 27.2756 16.9743 27.2756C15.4777 27.2756 14.2305 26.0462 14.2305 24.571C14.2305 23.0958 15.4777 21.8665 16.9743 21.8665C18.4709 21.8665 19.7181 23.0958 19.7181 24.571Z" fill="#BE3538"/>
<path d="M52.8929 24.571C52.8929 26.0462 51.6457 27.2756 50.1491 27.2756C48.6525 27.2756 47.4053 26.0462 47.4053 24.571C47.4053 23.0958 48.6525 21.8665 50.1491 21.8665C51.6457 21.8665 52.8929 23.0958 52.8929 24.571Z" fill="#589442"/>
<path d="M8.74316 24.571C8.74316 28.9966 12.4847 32.6847 16.9746 32.6847C21.4644 32.6847 25.206 28.9966 25.206 24.571C25.206 20.1453 21.4644 16.4573 16.9746 16.4573C12.4847 16.4573 8.74316 20.1453 8.74316 24.571ZM11.487 24.571C11.487 21.6205 13.9813 19.1618 16.9746 19.1618C19.9678 19.1618 22.4622 21.6205 22.4622 24.571C22.4622 27.5214 19.9678 29.9801 16.9746 29.9801C13.9813 29.9801 11.487 27.5214 11.487 24.571ZM41.9182 24.571C41.9182 28.9966 45.6598 32.6847 50.1496 32.6847C54.6395 32.6847 58.381 28.9966 58.381 24.571C58.381 20.1453 54.6395 16.4573 50.1496 16.4573C45.6598 16.4573 41.9182 20.1453 41.9182 24.571ZM44.9114 24.571C44.9114 21.6205 47.4058 19.1618 50.3991 19.1618C53.3923 19.1618 55.8867 21.6205 55.8867 24.571C55.8867 27.5214 53.3923 29.9801 50.3991 29.9801C47.1564 29.9801 44.9114 27.5214 44.9114 24.571Z" fill="black"/>
<path d="M44.4122 9.57286C46.1583 8.83525 47.9043 8.58938 49.6504 8.58938C44.9111 6.37655 39.4235 5.39307 33.437 5.39307C27.4505 5.39307 21.9629 6.37655 17.2236 8.58938C25.9539 8.83525 32.9381 15.4737 33.437 23.8333C33.6864 21.8664 33.9359 19.8994 34.9336 18.1783C36.9291 13.9985 40.4212 11.0481 44.4122 9.57286Z" fill="#FFD881"/>
<path d="M63.6192 14.982C64.3675 11.7857 66.8619 8.34353 66.8619 8.34353H55.8866C49.6507 4.40961 42.1676 2.19678 33.6868 2.19678C24.9565 2.19678 17.224 4.40961 10.9881 8.34353L0.511719 8.5894C0.511719 8.5894 3.00608 11.7857 3.75439 15.2279C1.7589 17.9325 0.511719 21.1288 0.511719 24.8168C0.511719 33.914 7.99482 41.2901 17.224 41.2901C22.4621 41.2901 27.2014 38.8314 30.1947 35.1434L33.6868 40.3067L37.1789 35.1434C38.6755 37.1103 40.9204 38.8314 43.1654 39.8149C47.1564 41.536 51.6462 41.7819 55.8866 40.3067C64.3675 37.1103 68.8573 27.7673 65.6147 19.1618C65.3652 17.6866 64.6169 16.2114 63.6192 14.982ZM33.6868 5.39309C39.6733 5.39309 45.1609 6.37657 49.9002 8.5894C48.1541 8.5894 46.4081 8.83527 44.662 9.57288C40.4216 11.0481 37.1789 13.9985 35.4328 18.1783C34.6845 19.8994 34.1857 21.8664 33.9362 23.8334C33.4373 15.4738 26.2037 8.83527 17.7228 8.5894C22.2127 6.37657 27.7003 5.39309 33.6868 5.39309ZM28.1992 32.1929C25.7048 35.6351 21.7138 37.848 17.224 37.848C9.99031 37.848 4.00383 31.9471 4.00383 24.8168C4.00383 17.6866 9.99031 11.7857 17.224 11.7857C24.4576 11.7857 30.4441 17.4407 30.4441 24.8168C30.4441 25.3086 30.4441 25.5544 30.1947 26.0462C29.9452 28.259 29.4464 30.226 28.1992 32.1929ZM54.8889 37.1103C51.6462 38.3397 47.9047 38.0938 44.662 36.6186C42.4171 35.6351 40.4216 33.914 39.1744 31.9471C38.6755 31.2095 38.1766 30.226 37.6778 29.2425C37.1789 28.259 37.1789 27.0297 36.9295 26.0462C36.68 23.8334 36.9295 21.3747 37.9272 19.4077C39.4238 16.2114 42.1676 13.7527 45.4103 12.5233C52.3945 10.0646 59.8776 13.5068 62.372 20.1453C65.3652 27.0297 61.6237 34.6516 54.8889 37.1103Z" fill="black"/>
<path d="M238.973 5.14724C238.973 6.86833 240.469 8.34355 242.215 8.34355C243.961 8.34355 245.458 6.86833 245.458 5.14724C245.458 3.42615 243.961 1.95093 242.215 1.95093C240.469 1.95093 238.973 3.42615 238.973 5.14724Z" fill="#589442"/>
<path d="M86.5671 4.90139L81.5784 6.62248V12.7692H76.0908V16.949H81.329V30.4719C81.329 36.8645 83.5739 39.5691 89.0615 39.5691C90.5581 39.5691 91.8053 39.3232 93.0525 39.0773H93.3019V34.6517H93.0525C92.0547 34.8976 91.057 35.1434 90.5581 35.1434C88.0638 35.1434 87.066 33.6682 87.066 29.9801V16.949H93.3019V12.7692H87.066V4.65552L86.5671 4.90139ZM103.279 16.949V12.7692H98.2907V39.0773H103.778V25.8004C103.778 20.3912 106.023 17.1949 110.513 17.1949C111.012 17.1949 111.76 17.1949 112.509 17.4408H112.758V12.5234L110.513 12.2775C107.52 12.2775 104.776 13.9986 103.279 16.949ZM141.942 12.0316C138.2 12.0316 135.207 13.7527 132.962 16.949V12.7692H127.974V49.6498H133.461V35.3893C135.457 38.0939 138.2 39.3232 141.693 39.3232C148.427 39.3232 152.917 33.9141 152.917 25.3086C152.917 17.4408 148.427 12.0316 141.942 12.0316ZM140.445 35.1434C136.205 35.1434 133.461 31.4554 133.461 25.8004C133.461 20.1453 136.205 16.7032 140.695 16.7032C144.935 16.7032 147.43 20.1453 147.43 25.8004C147.18 31.4554 144.686 35.1434 140.445 35.1434Z" fill="black"/>
<path d="M168.632 12.0315C165.389 12.0315 162.396 12.5232 159.901 13.9985H159.652V18.4241H160.151C162.645 16.9489 165.14 16.2113 167.385 16.2113C171.376 16.2113 173.62 18.4241 173.62 22.3581V22.6039H170.627C161.647 22.6039 156.908 25.8002 156.908 31.4552C156.908 36.1268 160.4 39.3231 165.389 39.3231C169.131 39.3231 171.874 37.8479 174.119 35.1433V38.8314H179.108V23.0957C178.609 15.7196 175.366 12.0315 168.632 12.0315ZM173.371 28.0131C173.371 32.4387 170.627 35.3892 166.387 35.3892C163.892 35.3892 161.897 33.6681 161.897 31.2094C161.897 28.0131 164.89 26.292 170.627 26.292H173.371V28.0131ZM201.557 0.229736V16.2113C199.562 13.5067 196.818 12.0315 193.326 12.0315C186.841 12.0315 182.351 17.4406 182.351 25.3085C182.351 33.4222 186.841 39.3231 193.326 39.3231C197.067 39.3231 200.061 37.602 202.056 34.4057V38.8314H207.045V0.229736H201.557ZM194.573 34.8974C190.582 34.8974 187.838 31.4552 187.838 25.5544C187.838 19.8993 190.333 16.2113 194.324 16.2113C198.813 16.2113 201.557 19.6535 201.557 25.5544C201.557 31.4552 198.814 34.8974 194.573 34.8974ZM230.991 12.7691L223.258 28.0131L216.274 12.7691H210.288L223.258 39.0772L236.728 12.7691H230.991ZM244.46 12.7691H239.472V39.0772H244.959V12.7691H244.46ZM251.195 19.4076C251.195 23.0957 253.689 25.0626 258.429 27.2755C261.422 28.7507 262.919 29.4883 262.919 31.7011C262.919 33.9139 260.923 35.1433 257.93 35.1433C255.934 35.1433 253.44 34.6516 251.195 33.4222L250.696 33.1763L250.447 37.8479H250.696C252.941 38.8314 255.186 39.0772 257.68 39.0772C264.166 39.0772 268.656 35.8809 268.656 31.2094C268.656 27.2755 265.912 25.0626 261.173 23.0957C257.68 21.6204 256.433 20.637 256.433 18.9159C256.433 17.4406 257.93 16.2113 260.424 16.2113C262.669 16.2113 264.914 16.703 266.91 17.6865L267.408 17.9324L267.658 13.5067H267.408C265.164 12.7691 262.919 12.5232 260.923 12.5232C255.186 12.5232 251.195 15.2278 251.195 19.4076ZM285.617 12.0315C277.386 12.0315 272.397 17.1948 272.397 25.8002C272.397 34.4057 277.386 39.569 285.617 39.569C293.849 39.569 298.837 34.4057 298.837 25.8002C298.837 17.1948 293.849 12.0315 285.617 12.0315ZM285.617 35.1433C281.128 35.1433 278.134 31.4552 278.134 25.8002C278.134 20.1452 281.128 16.2113 285.617 16.2113C290.107 16.2113 293.1 19.8993 293.1 25.8002C293.1 31.4552 290.357 35.1433 285.617 35.1433ZM308.815 16.9489V12.7691H303.826V39.0772H309.314V25.8002C309.314 20.3911 311.559 17.1948 316.049 17.1948C316.547 17.1948 317.296 17.1948 318.044 17.4406H318.294L318.543 12.2774L316.298 12.0315C312.806 12.2774 310.312 13.9985 308.815 16.9489Z" fill="#589442"/>
<path d="M122.486 12.7692H117.497V39.0773H122.735V12.7692H122.486ZM116.749 5.14724C116.749 6.86833 118.246 8.34355 119.992 8.34355C121.738 8.34355 123.234 6.86833 123.234 5.14724C123.234 3.42615 121.738 1.95093 119.992 1.95093C118.246 1.95093 116.749 3.42615 116.749 5.14724Z" fill="black"/>
<path d="M331.265 11.5397C332.262 12.5232 332.512 13.5066 332.512 14.9819C332.512 16.2112 332.013 17.4406 331.015 18.424C330.017 19.4075 328.77 19.8993 327.523 19.8993C326.276 19.8993 325.029 19.4075 324.031 18.424C323.033 17.4406 322.534 16.4571 322.534 15.2277C322.534 13.9984 323.033 12.769 324.031 11.7855C325.029 10.8021 326.026 10.5562 327.274 10.5562C329.02 10.0645 330.267 10.5562 331.265 11.5397ZM325.029 12.0314C324.28 12.769 323.781 13.7525 323.781 14.736C323.781 15.7195 324.28 16.7029 325.029 17.4406C325.777 18.1782 326.775 18.6699 327.772 18.6699C328.77 18.6699 329.768 18.1782 330.516 17.4406C331.265 16.7029 331.763 15.7195 331.763 14.736C331.763 13.7525 331.265 12.769 330.766 12.0314C330.017 11.2938 329.02 10.8021 328.022 10.8021C326.775 11.0479 325.777 11.2938 325.029 12.0314ZM327.772 12.2773C329.269 12.2773 330.017 12.769 330.017 13.7525C330.017 14.4901 329.518 14.9819 328.77 15.2277L330.017 17.4406H328.521L327.523 15.4736H327.274V17.4406H325.777V12.2773H327.772ZM327.274 14.4901H327.772C328.521 14.4901 328.77 14.2442 328.77 13.7525C328.77 13.2608 328.521 13.0149 327.772 13.0149H327.274V14.4901Z" fill="#ABC99F"/>
</g>
<defs>
<clipPath id="clip0">
<rect width="332" height="61" fill="white" transform="translate(0.511719 0.217773)"/>
</clipPath>
</defs>
</svg>
