<svg width="229" height="37" viewBox="0 0 229 37" fill="none" xmlns="http://www.w3.org/2000/svg">
<g clip-path="url(#clip0)">
<path d="M97.3862 0H117.266V4.83674H102.756V11.7049H116.862V16.3772H102.756V23.3615H117.266V28.1982H97.3862V0ZM172.168 28.706C178.262 28.706 181.696 25.804 181.696 21.8185C181.696 18.9794 179.663 16.8609 175.407 15.9419L170.908 15.0277C168.296 14.5441 167.474 14.0604 167.474 13.0931C167.474 11.8403 168.733 11.0713 171.054 11.0713C173.568 11.0713 175.431 11.7436 175.918 14.0556H181.191C180.904 9.7025 177.756 6.82948 171.375 6.82948C165.859 6.82948 161.987 9.09307 161.987 13.48C161.987 16.5126 164.117 18.486 168.714 19.4485L173.744 20.6045C175.728 20.9914 176.258 21.5235 176.258 22.3409C176.258 23.642 174.76 24.4594 172.338 24.4594C169.293 24.4594 167.551 23.7871 166.875 21.4751H161.573C162.347 25.8185 165.586 28.706 172.168 28.706ZM160.041 28.1788H154.336C150.756 28.1788 148.771 25.9636 148.771 23.168V12.0918H144.758V7.37119H148.79V1.44619H154.092V7.37119H160.041V12.0918H154.092V21.8185C154.092 22.9261 154.866 23.4582 156.077 23.4582H160.041V28.1788ZM137.18 7.38086V9.25752C135.313 7.68841 132.946 6.83114 130.501 6.83915C129.038 6.80854 127.583 7.06872 126.222 7.60442C124.861 8.14013 123.621 8.94059 122.576 9.95889C121.53 10.9772 120.699 12.1928 120.132 13.5346C119.564 14.8763 119.272 16.3171 119.272 17.7726C119.272 19.2281 119.564 20.6689 120.132 22.0106C120.699 23.3524 121.53 24.568 122.576 25.5863C123.621 26.6046 124.861 27.4051 126.222 27.9408C127.583 28.4765 129.038 28.7367 130.501 28.706C132.946 28.7166 135.314 27.859 137.18 26.2877V28.1692H142.467V7.37119L137.18 7.38086ZM130.939 24.1402C129.671 24.1546 128.427 23.7937 127.365 23.1034C126.304 22.4131 125.473 21.4246 124.977 20.2634C124.482 19.1023 124.345 17.821 124.584 16.5823C124.823 15.3437 125.427 14.2036 126.319 13.307C127.211 12.4104 128.351 11.7978 129.594 11.547C130.837 11.2962 132.127 11.4185 133.3 11.8984C134.473 12.3784 135.476 13.1942 136.182 14.2423C136.887 15.2904 137.263 16.5235 137.262 17.7847C137.27 18.6161 137.112 19.4408 136.797 20.211C136.482 20.9812 136.017 21.6817 135.428 22.2718C134.839 22.862 134.138 23.3301 133.366 23.6492C132.594 23.9682 131.765 24.1318 130.929 24.1305L130.939 24.1402Z" fill="white"/>
<path d="M85.5856 11.2744C82.9249 11.2744 81.0376 13.3446 81.0376 16.5223V28.1788H76.9761V7.6614H80.989V10.1668C81.484 9.33643 82.1933 8.65279 83.0434 8.18674C83.8936 7.7207 84.8536 7.48922 85.824 7.51629H87.2832V11.2744H85.5856ZM74.1695 17.9201C74.1695 11.8016 69.7918 7.22609 63.8672 7.22609C62.4674 7.23554 61.0833 7.52012 59.7945 8.06346C58.5057 8.6068 57.3377 9.39818 56.3576 10.3921C55.3775 11.3859 54.6048 12.5627 54.0838 13.8547C53.5628 15.1466 53.3038 16.5283 53.3218 17.9201C53.3218 24.0338 58.0643 28.6577 64.2515 28.6577C65.9798 28.6901 67.6906 28.309 69.2398 27.5464C70.7889 26.7837 72.131 25.662 73.1529 24.2756L70.2052 22.1281C69.5289 23.0666 68.6341 23.8283 67.5973 24.348C66.5605 24.8677 65.4125 25.13 64.2515 25.1124C62.598 25.1046 61.0019 24.5081 59.7527 23.4309C58.5034 22.3537 57.6836 20.8671 57.4417 19.2405H74.1792L74.1695 17.9201ZM57.5293 16.0386C58.254 12.9093 60.7688 10.7908 63.8186 10.7908C66.8684 10.7908 69.3783 12.9093 70.0593 16.0386H57.5293ZM40.4561 7.22609C39.0988 7.22722 37.7551 7.49581 36.5028 8.01634C35.2505 8.53686 34.1143 9.299 33.1599 10.2587V0H29.0984V28.1788H33.1113V25.5767C35.0553 27.5322 37.7006 28.6404 40.4659 28.6577C41.9003 28.688 43.3264 28.4332 44.6606 27.9083C45.9947 27.3834 47.21 26.5989 48.2353 25.6009C49.2606 24.6028 50.0751 23.4113 50.6312 22.0961C51.1873 20.7809 51.4738 19.3686 51.4738 17.9419C51.4738 16.5152 51.1873 15.1028 50.6312 13.7877C50.0751 12.4725 49.2606 11.2809 48.2353 10.2829C47.21 9.28484 45.9947 8.50036 44.6606 7.97546C43.3264 7.45055 41.9003 7.19578 40.4659 7.22609H40.4561ZM40.1643 25.0495C38.7486 25.0562 37.3628 24.6446 36.1827 23.8668C35.0027 23.0891 34.0816 21.9804 33.5362 20.6813C32.9909 19.3822 32.846 17.9513 33.1198 16.5701C33.3936 15.1889 34.0739 13.9198 35.0743 12.9237C36.0746 11.9276 37.35 11.2494 38.7386 10.9753C40.1272 10.7011 41.5664 10.8433 42.8737 11.3838C44.1809 11.9242 45.2972 12.8387 46.0809 14.011C46.8646 15.1833 47.2805 16.5608 47.2757 17.9685C47.2769 18.897 47.0938 19.8166 46.7368 20.6746C46.3797 21.5326 45.8558 22.312 45.1951 22.9681C44.5343 23.6242 43.7498 24.1441 42.8865 24.498C42.0232 24.8518 41.0981 25.0327 40.1643 25.0301V25.0495ZM14.1411 24.856C18.0616 24.856 21.1066 21.8669 21.1066 17.3881V0H25.3141V28.1788H21.1552V25.5138C20.1836 26.5123 19.0183 27.3045 17.73 27.8424C16.4416 28.3803 15.0569 28.6527 13.6596 28.6432C7.61348 28.6432 2.9585 24.2611 2.9585 17.6154V0H7.2438V17.4123C7.2438 21.9153 10.1623 24.856 14.1411 24.856Z" fill="white"/>
</g>
<defs>
<clipPath id="clip0">
<rect width="228" height="37" fill="white" transform="translate(0.712891)"/>
</clipPath>
</defs>
</svg>
