<svg width="142" height="70" viewBox="0 0 142 70" fill="none" xmlns="http://www.w3.org/2000/svg">
<g clip-path="url(#clip0)">
<path d="M138.776 39.0198C137.876 38.3372 137.728 38.2328 132.315 36.4451C137.003 35.2889 137.204 35.1658 138.036 34.6179C139.918 33.3386 140.923 31.2166 140.777 28.9181L140.758 28.6674C140.376 24.9782 135.637 18.0177 132.447 16.4552C130.342 15.4476 128.001 15.5892 126.158 16.8313C125.29 17.4071 125.174 17.4861 121.611 22.364C121.264 16.6642 120.595 6.61352 120.431 5.67323L120.396 5.45734L120.343 5.2484C119.734 3.04047 118.006 1.38279 115.719 0.807007C111.901 -0.147209 101.804 2.70612 99.0956 5.50609C97.505 7.17075 96.8938 9.4112 97.4426 11.5123L97.5536 11.9302L97.7412 12.3179C98.0005 12.8542 98.6835 13.9896 104.543 23.209L106.704 26.6219C101.457 24.4697 101.249 24.4628 100.163 24.4535C98.0954 24.3629 96.0233 25.4727 94.7754 27.4322L94.7522 27.4693C94.1086 28.5095 93.7103 29.9234 93.4626 31.4046C91.7725 29.1201 89.2281 27.2882 85.3709 26.529C82.6366 25.9788 80.0713 26.3108 77.6542 27.2906C75.4408 25.8743 72.3986 25.7095 69.8542 27.1652C69.1511 27.5619 68.529 28.0881 68.0205 28.7161V25.5865L67.7774 23.7268L67.7033 23.3925C67.1917 21.3749 65.6729 19.6731 63.6401 18.8373L63.6216 18.828C61.3897 17.9249 58.8869 18.1408 56.7638 19.4154C54.5018 20.755 53.3419 22.9792 53.3419 26.0206V32.4029C52.5473 31.1533 51.5385 30.0545 50.3622 29.1573C47.1857 26.7427 42.9256 25.9278 38.0497 26.8054C35.2228 27.2976 32.859 28.5351 30.986 30.3506L30.8957 30.1625C29.9441 28.4537 28.3998 27.279 26.4226 26.7589C23.1211 25.8511 18.9305 26.9772 17.201 32.8975L16.5366 35.1612C15.7795 33.7681 13.8162 29.9629 13.7352 29.8491C11.9663 27.1606 8.42396 25.9951 5.25672 27.2581C2.19597 28.4143 0.424805 31.1144 0.424805 34.2882C0.424805 35.2888 0.598435 36.3313 0.961927 37.39L1.05222 37.6477L9.16022 54.2084C6.23607 54.9815 4.15238 57.1685 3.81436 60.1682C3.6782 61.2591 3.80569 62.3669 4.18608 63.3981C4.56646 64.4293 5.18857 65.3536 5.99994 66.0931C8.19942 68.1293 11.6167 68.8026 15.629 67.9784C19.9886 67.1194 22.496 64.4842 24.2533 58.8959L26.9274 50.4704C27.7979 54.018 29.3815 56.3351 30.8841 57.821C33.0442 59.9639 37.001 62.3343 43.5508 61.4474C48.4174 60.7648 51.786 58.5801 53.6058 56.0123L53.7239 56.6322C54.2425 58.464 55.6525 60.0915 57.5463 60.9575C58.5327 61.4115 59.6064 61.6429 60.6916 61.6357C61.7769 61.6285 62.8473 61.3827 63.8276 60.9157C64.8764 60.4583 65.7654 59.7363 66.4577 58.8332V61.4892C66.4577 65.8795 68.9906 67.7462 70.5001 68.4705C71.4868 68.965 72.5694 69.2372 73.672 69.268C74.7746 69.2989 75.8706 69.0877 76.8832 68.6493C78.8234 67.8065 80.2634 66.2023 80.8284 64.2544L80.9164 63.9549L81.1803 62.144V61.3661C83.8127 61.6354 86.5609 61.206 88.9804 59.9476C90.05 59.3904 90.9853 58.7194 91.8211 57.9486H93.5993C94.567 58.4594 95.6667 58.7775 96.8498 58.7775C98.0375 58.7775 99.1349 58.4594 100.1 57.9486H105.256C108.671 59.8756 113.663 61.336 116.335 60.8763C118.636 60.4676 120.449 58.9818 121.215 56.8992L121.255 56.7947C121.579 55.8475 121.632 55.671 121.655 50.3195C124.582 55.0604 124.735 55.1858 125.556 55.8359C127.323 57.2173 129.645 57.5214 131.789 56.6554C135.232 55.2694 140.492 48.5643 141.02 44.8844C141.064 44.564 141.089 44.239 141.089 43.9209C141.089 41.9939 140.261 40.2085 138.776 39.0198ZM85.3524 26.5244C85.3593 26.5291 85.3639 26.529 85.3709 26.529C85.3755 26.5337 85.3802 26.5337 85.3871 26.5337L85.3524 26.5244ZM131.794 56.6554H131.789C131.782 56.6554 131.78 56.6624 131.773 56.6647L131.794 56.6554Z" fill="white"/>
<path d="M97.8244 31.586C96.9887 32.9278 96.639 37.1441 96.9281 39.9461C97.0277 40.8698 97.1922 41.6409 97.4404 42.0985C97.7736 42.7367 98.3334 43.1175 98.9726 43.1387C99.3777 43.1594 99.6353 43.092 107.34 40.6007C107.34 40.6007 110.764 39.5096 110.783 39.5026C111.63 39.282 112.209 38.4973 112.265 37.492C112.32 36.4588 111.785 35.5511 110.915 35.2217L108.498 34.2324C100.214 30.806 99.8454 30.6759 99.4242 30.6712C98.7874 30.641 98.2201 30.9681 97.8244 31.5855V31.586ZM116.344 57.1059C116.48 56.7157 116.495 56.4489 116.515 48.332C116.515 48.332 116.536 44.7454 116.543 44.7058C116.594 43.8329 116.029 43.0294 115.098 42.6697C114.142 42.2979 113.112 42.5255 112.531 43.2499C112.531 43.2499 110.845 45.2558 110.839 45.2582C105.039 52.0954 104.795 52.407 104.657 52.8156C104.567 53.0523 104.535 53.3067 104.562 53.5584C104.599 53.918 104.758 54.2828 105.034 54.6075C106.377 56.2166 112.829 58.5962 114.885 58.2436C115.601 58.1136 116.124 57.7049 116.344 57.1059ZM129.425 54.2799C131.375 53.5023 135.621 48.0884 135.917 46.0085C136.019 45.2813 135.795 44.6591 135.294 44.2576C134.972 44.0116 134.715 43.9164 127.022 41.3812C127.022 41.3812 123.639 40.2618 123.602 40.2435C122.78 39.923 121.849 40.218 121.222 40.9957C120.569 41.7922 120.467 42.8389 120.993 43.635L122.352 45.8525C126.925 53.3006 127.27 53.8251 127.598 54.0853C128.108 54.4821 128.758 54.5542 129.425 54.2804V54.2799ZM125.455 35.1123C134.206 32.9905 134.541 32.8788 134.889 32.6516C135.419 32.2892 135.681 31.6949 135.637 30.9592C135.637 30.9332 135.639 30.9125 135.637 30.887C135.41 28.7346 131.648 23.1279 129.793 22.2178C129.133 21.9044 128.476 21.9256 127.934 22.2876C127.596 22.5147 127.343 22.8399 122.662 29.2709C122.662 29.2709 120.544 32.1638 120.518 32.1893C119.96 32.8675 119.953 33.845 120.495 34.6825C121.058 35.5487 122.016 35.9715 122.892 35.7278C122.892 35.7278 122.852 35.7882 122.845 35.8018C123.273 35.6369 124.051 35.4469 125.455 35.1123ZM116.666 27.8664C116.513 24.3882 115.473 8.90523 115.351 8.19026C115.172 7.53514 114.665 7.07326 113.936 6.88992C111.707 6.33283 103.165 8.73556 101.584 10.3729C101.08 10.9017 100.89 11.5587 101.04 12.1393C101.288 12.6502 111.866 29.3407 111.866 29.3407C113.431 31.8853 114.707 31.4884 115.124 31.3579C115.54 31.2283 116.809 30.8314 116.666 27.8664Z" fill="#E9E9E9"/>
<path d="M98.5235 29.8305C97.6898 31.1705 97.3377 35.3887 97.6273 38.1887C97.7292 39.1125 97.8961 39.8836 98.1391 40.3436C98.4728 40.9798 99.0325 41.3578 99.6713 41.3814C100.082 41.4021 100.336 41.3324 108.041 38.8481C108.041 38.8481 111.465 37.7523 111.479 37.7452C112.334 37.527 112.908 36.7399 112.963 35.7346C113.019 34.7039 112.489 33.7938 111.614 33.4643C111.614 33.4643 109.199 32.4774 109.194 32.4774C100.915 29.0529 100.542 28.9186 100.125 28.9139C99.4861 28.8879 98.9193 29.2108 98.5235 29.8305ZM117.045 55.3462C117.18 54.956 117.196 54.6892 117.219 46.5724C117.219 46.5724 117.237 42.9857 117.24 42.9508C117.295 42.0709 116.728 41.2697 115.8 40.9124C114.843 40.5429 113.813 40.771 113.234 41.4926C113.234 41.4926 111.544 43.5032 111.54 43.5032C105.74 50.3358 105.497 50.6515 105.355 51.0559C105.268 51.2938 105.237 51.5485 105.263 51.8006C105.298 52.1635 105.462 52.5207 105.733 52.8549C107.078 54.4573 113.528 56.8365 115.589 56.484C116.304 56.3539 116.825 55.95 117.046 55.3462H117.045ZM130.131 52.5207C132.076 51.7431 136.317 46.3311 136.616 44.2483C136.72 43.5239 136.494 42.8995 135.995 42.5003C135.669 42.2542 135.421 42.159 127.721 39.6239C127.721 39.6239 124.343 38.5045 124.299 38.4833C123.481 38.1656 122.548 38.4607 121.921 39.236C121.268 40.0325 121.171 41.084 121.692 41.8781L123.051 44.098C127.621 51.5409 127.971 52.0678 128.3 52.3256C128.809 52.7272 129.457 52.7922 130.131 52.5207ZM126.151 33.3573C134.902 31.2308 135.241 31.1191 135.586 30.8919C136.116 30.5342 136.382 29.9352 136.336 29.2061C136.336 29.183 136.34 29.1575 136.336 29.1321C136.111 26.9772 132.346 21.3729 130.492 20.4628C129.834 20.147 129.177 20.1678 128.631 20.5345C128.293 20.755 128.045 21.0897 123.359 27.516C123.359 27.516 121.243 30.4065 121.217 30.4343C120.659 31.1149 120.65 32.09 121.197 32.9256C121.762 33.7914 122.715 34.2142 123.59 33.9705C123.59 33.9705 123.556 34.0332 123.547 34.0445C123.977 33.8819 124.748 33.692 126.151 33.3573ZM117.367 26.1115C117.217 22.6332 116.172 7.14789 116.05 6.43056C115.874 5.78015 115.367 5.31592 114.64 5.13258C112.405 4.57785 103.867 6.97586 102.285 8.61272C101.776 9.14435 101.589 9.799 101.742 10.3797C101.992 10.8929 112.57 27.5833 112.57 27.5833C114.133 30.1256 115.409 29.7311 115.827 29.5987C116.242 29.4709 117.51 29.076 117.367 26.111" fill="#BF2519"/>
<path d="M9.00962 62.8171C10.1118 63.8408 12.2 64.1312 14.7375 63.6137C17.1157 63.1423 18.59 62.0767 20.0094 57.5517L27.0777 35.2815C27.4434 34.0994 27.4161 33.0734 26.9969 32.3122C26.6561 31.699 26.0893 31.2834 25.288 31.0699C24.0284 30.7239 22.4567 30.7588 21.4655 34.1531L17.7567 46.7861C17.7567 46.7861 10.202 32.4748 10.1973 32.4725C9.72026 31.5157 8.32202 30.8314 6.89793 31.3979C5.04144 32.1058 4.42292 33.7799 5.16364 35.9366C5.16364 35.9366 14.353 54.689 14.3742 54.7399C14.3742 54.7399 14.6242 55.4087 14.6242 55.5175C14.6242 55.5175 14.7074 56.0265 14.7074 56.0449C14.6886 56.767 14.448 57.375 14.0174 57.7812C13.594 58.1809 13.0055 58.3897 12.3179 58.3619C12.3179 58.3619 10.8849 58.3289 10.7763 58.3289C9.30384 58.5103 8.37748 59.3577 8.22896 60.667C8.12556 61.5102 8.39628 62.2506 9.00962 62.8171ZM45.2177 41.7011H35.3779C35.1114 41.5065 34.9821 41.1789 35.1809 40.1944C35.3059 39.6769 35.4404 39.2126 35.8342 38.5622C35.9611 38.3676 36.0932 38.1677 36.2206 37.9684C36.9406 37.0555 37.9154 36.4706 39.0246 36.2104C42.4837 35.363 44.8958 37.1252 45.2873 40.1317C45.4748 41.4438 45.3517 41.7011 45.2177 41.7011ZM51.2652 39.9832C50.9479 36.7656 49.7095 34.2535 47.6791 32.7142C45.5162 31.068 42.4555 30.5434 38.8323 31.1933C34.2898 31.9828 31.5624 35.2376 30.9373 40.6195C30.1684 47.0528 31.224 51.9007 34.0003 54.6423C36.0932 56.7161 39.1891 57.5399 42.9537 57.029C48.3225 56.2721 50.7369 53.317 50.7369 51.4478C50.7369 50.0735 49.9083 48.9913 48.6905 48.8268C47.9935 48.6873 47.4055 48.8268 46.1041 49.9943C44.2288 51.6335 42.0551 52.2928 40.1286 51.8032C38.6608 51.4294 37.5149 50.4147 36.9961 49.0239C36.9961 49.0239 36.7648 48.1048 36.7785 48.2066C36.621 47.378 36.5496 46.5561 37.0586 46.2215L37.1949 46.1286H48.989C50.0775 46.1286 50.6283 45.9872 50.9456 45.6432C51.5942 44.9216 51.5425 42.8601 51.2652 39.9832ZM61.9566 22.9652C61.0237 22.5844 59.9704 22.6867 59.0464 23.2391C58.1577 23.7665 57.7868 24.5696 57.7868 26.0207V54.22C57.7868 54.22 57.9419 55.2277 57.9584 55.2715C58.1577 55.9752 58.6761 56.5742 59.3961 56.9013C60.1951 57.2732 61.1163 57.2661 61.9407 56.8782C62.9662 56.4323 63.5706 55.4039 63.5706 54.1295V25.8765C63.5706 25.8765 63.392 24.5116 63.392 24.4862C63.2275 23.831 62.6884 23.265 61.9566 22.9652ZM84.211 51.608C80.3166 51.608 79.6962 48.1416 79.5735 45.5253C79.5665 45.5183 79.5223 43.9926 79.5223 43.9926C79.5223 43.9926 79.5665 42.8601 79.5665 42.8158C79.8189 38.2884 80.7518 36.5031 83.1342 36.0063C84.7341 35.6349 85.9566 35.8159 86.8735 36.5563C88.2506 37.6686 88.8574 40.0228 88.8019 43.9512C88.7625 48.5502 87.9639 51.608 84.211 51.608ZM84.5001 30.9035C81.8911 30.369 79.6591 30.8172 77.5126 32.275C77.5126 32.275 77.272 32.4701 77.1794 32.5262L76.9872 32.6238L76.3997 32.8882L76.2323 32.2264L76.0913 31.9875L76.0425 31.839L76.0265 31.7947C76.0265 31.7947 75.8831 31.602 75.862 31.5718C75.2463 30.6103 73.5722 30.1697 72.063 31.0331C71.3242 31.4535 70.9007 32.0455 70.9007 33.8124V61.489C70.9007 63.0052 71.3754 63.9478 72.4122 64.4446C73.2873 64.8857 74.2715 64.9206 75.1166 64.5563C75.8343 64.2405 76.3621 63.6829 76.559 63.0052L76.7329 61.8189V57.029L76.6817 56.2584L76.7023 56.0308L76.7324 55.9219L77.0172 55.0095L77.8811 55.5849C77.8811 55.5849 78.0987 55.7291 78.1913 55.8267L78.4507 55.9983C78.4526 56.0006 78.7515 56.175 78.7515 56.175C78.7562 56.175 79.0293 56.3093 79.0293 56.3093C81.3445 57.4051 84.4423 57.2774 86.9361 55.9888C90.0756 54.3454 91.6266 51.4294 91.9852 46.533C92.7353 36.7468 90.4897 32.0709 84.5001 30.903V30.9035ZM96.5997 53.7742H96.9216C97.1829 53.7742 97.4287 53.76 97.4287 53.4655C97.4287 53.2006 97.2041 53.1732 97.0024 53.1732H96.5997V53.7742ZM96.3355 52.9362H97.0255C97.4771 52.9362 97.6882 53.1011 97.6882 53.4768C97.6882 53.8161 97.4724 53.9575 97.19 53.9877L97.7342 54.8214H97.4494L96.9352 54.0108H96.5997V54.8214H96.3355V52.9362ZM96.9446 55.2578C97.706 55.2578 98.3198 54.6565 98.3198 53.8599C98.3198 53.0776 97.7065 52.4743 96.9446 52.4743C96.1804 52.4743 95.5671 53.0776 95.5671 53.8764C95.5654 54.0583 95.6 54.2386 95.6686 54.4069C95.7373 54.5752 95.8387 54.7282 95.9669 54.8567C96.0952 54.9853 96.2477 55.0869 96.4156 55.1557C96.5835 55.2245 96.7633 55.2591 96.9446 55.2574V55.2578ZM96.9446 52.2396C97.8339 52.2396 98.5816 52.9409 98.5816 53.8599C98.5816 54.7955 97.8339 55.4944 96.9446 55.4944C96.0531 55.4944 95.3076 54.7955 95.3076 53.8764C95.3076 52.9409 96.0531 52.2396 96.9446 52.2396Z" fill="#231F20"/>
</g>
<defs>
<clipPath id="clip0">
<rect width="141" height="69" fill="white" transform="translate(0.255859 0.445312)"/>
</clipPath>
</defs>
</svg>
